<svg xmlns="http://www.w3.org/2000/svg" enable-background="new 0 0 512 512" viewBox="0 0 512 512" id="company"><polygon fill="#c2ced4" points="466 8.5 226 8.5 226 98.5 210.4 289.9 226 488.5 466 488.5 466 428.5 426.4 248.5 466 68.5"></polygon><polygon fill="#0885f6" points="466 338.5 466 428.5 286 428.5 286 338.5 386.133 319.233"></polygon><polygon fill="#0885f6" points="466 158.5 466 248.5 376 262.167 286 248.5 286 158.5 381.333 145.9"></polygon><rect width="180" height="90" x="286" y="248.5" fill="#68aef9"></rect><rect width="180" height="90" x="286" y="68.5" fill="#68aef9"></rect><rect width="180" height="390" x="46" y="98.5" fill="#e0e6e9"></rect><path fill="#68aef9" d="M106 203.5c-8.284 0-15-6.716-15-15v-15c0-8.284 6.716-15 15-15s15 6.716 15 15v15C121 196.784 114.284 203.5 106 203.5zM166 203.5c-8.284 0-15-6.716-15-15v-15c0-8.284 6.716-15 15-15s15 6.716 15 15v15C181 196.784 174.284 203.5 166 203.5zM106 278.5c-8.284 0-15-6.716-15-15v-15c0-8.284 6.716-15 15-15s15 6.716 15 15v15C121 271.784 114.284 278.5 106 278.5zM166 278.5c-8.284 0-15-6.716-15-15v-15c0-8.284 6.716-15 15-15s15 6.716 15 15v15C181 271.784 174.284 278.5 166 278.5zM106 353.5c-8.284 0-15-6.716-15-15v-15c0-8.284 6.716-15 15-15s15 6.716 15 15v15C121 346.784 114.284 353.5 106 353.5zM166 353.5c-8.284 0-15-6.716-15-15v-15c0-8.284 6.716-15 15-15s15 6.716 15 15v15C181 346.784 174.284 353.5 166 353.5zM106 428.5c-8.284 0-15-6.716-15-15v-15c0-8.284 6.716-15 15-15s15 6.716 15 15v15C121 421.784 114.284 428.5 106 428.5zM166 428.5c-8.284 0-15-6.716-15-15v-15c0-8.284 6.716-15 15-15s15 6.716 15 15v15C181 421.784 174.284 428.5 166 428.5z"></path><path fill="#03e48c" d="M496,503.5H16c-8.284,0-15-6.716-15-15s6.716-15,15-15h480c8.284,0,15,6.716,15,15
				S504.284,503.5,496,503.5z"></path></svg>